<svg xmlns="http://www.w3.org/2000/svg" viewBox="0 0 920 320" role="img" aria-labelledby="title desc">
  <title id="title">Elitiro Logo</title>
  <desc id="desc">Blue and gold Elitiro wordmark inspired by provided brand image</desc>
  <defs>
    <linearGradient id="gold" x1="0%" y1="0%" x2="0%" y2="100%">
      <stop offset="0%" stop-color="#e4c431"/>
      <stop offset="100%" stop-color="#b89411"/>
    </linearGradient>
    <linearGradient id="blue" x1="0%" y1="0%" x2="100%" y2="100%">
      <stop offset="0%" stop-color="#0b4aa2"/>
      <stop offset="100%" stop-color="#07357a"/>
    </linearGradient>
  </defs>
  <rect width="100%" height="100%" fill="transparent"/>
  <path d="M42 206c25-64 76-102 161-122 7-2 13 7 7 12-47 33-77 69-96 112-10 20-41 18-72-2z" fill="url(#blue)"/>
  <path d="M199 222c-9-58 13-107 54-137 7-5 16 3 12 10-23 40-28 82-17 126 3 12-47 14-49 1z" fill="url(#gold)"/>
  <path d="M285 219c-8-57 10-101 44-131 8-7 19 3 14 11-17 32-20 69-11 118 2 12-45 14-47 2z" fill="url(#gold)"/>
  <path d="M367 218c-3-44 3-82 17-115 4-9 16-9 20 0 12 27 17 61 14 114-1 12-50 13-51 1z" fill="url(#gold)"/>
  <path d="M442 218c-7-56 11-103 46-132 7-6 18 2 14 10-19 37-24 78-14 121 3 13-44 14-46 1z" fill="url(#gold)"/>
  <path d="M535 218c-8-57 13-106 53-136 8-6 18 3 14 11-22 39-27 81-16 124 3 13-47 15-51 1z" fill="url(#gold)"/>
  <path d="M636 217c4-61 33-109 81-141 8-5 18 4 13 12-26 38-37 80-35 129 0 13-58 13-59 0z" fill="url(#blue)"/>
  <path d="M763 206c4-64 32-108 82-128 8-3 15 5 10 12-27 37-37 72-34 116 1 11-57 11-58 0z" fill="url(#blue)"/>
  <path d="M95 248c180-35 461-37 726-7" fill="none" stroke="#0b4aa2" stroke-width="14" stroke-linecap="round"/>
</svg>
